<?xml version="1.0" encoding="UTF-8"?>
<!DOCTYPE svg PUBLIC "-//W3C//DTD SVG 1.1//EN" "http://www.w3.org/Graphics/SVG/1.1/DTD/svg11.dtd">
<!-- Creator: CorelDRAW 2019 (64-Bit) -->
<svg xmlns="http://www.w3.org/2000/svg" xml:space="preserve" width="55.6373mm" height="10.7605mm" version="1.1" style="shape-rendering:geometricPrecision; text-rendering:geometricPrecision; image-rendering:optimizeQuality; fill-rule:evenodd; clip-rule:evenodd"
viewBox="0 0 5563.7 1076.04"
 xmlns:xlink="http://www.w3.org/1999/xlink"
 xmlns:xodm="http://www.corel.com/coreldraw/odm/2003">
 <defs>
  <style type="text/css">
   <![CDATA[
    .str0 {stroke:#A2A5A8;stroke-width:17.64;stroke-miterlimit:10}
    .fil3 {fill:none;fill-rule:nonzero}
    .fil2 {fill:#8F9092;fill-rule:nonzero}
    .fil1 {fill:#92C84B;fill-rule:nonzero}
    .fil0 {fill:#43C2F1;fill-rule:nonzero}
   ]]>
  </style>
 </defs>
 <g id="Layer_x0020_1">
  <metadata id="CorelCorpID_0Corel-Layer"/>
  <polygon class="fil0" points="560.14,867.32 129.08,436.26 169.83,395.52 600.85,826.58 "/>
  <path class="fil0" d="M90.35 403.89c-26.18,0 -47.38,-21.24 -47.38,-47.38 0,-26.18 21.2,-47.41 47.38,-47.41 26.18,0 47.38,21.23 47.38,47.41 0,26.14 -21.2,47.38 -47.38,47.38zm0 -137.34c-49.67,0 -89.96,40.29 -89.96,89.96 0,49.67 40.29,89.96 89.96,89.96 49.67,0 89.96,-40.29 89.96,-89.96 0,-49.67 -40.29,-89.96 -89.96,-89.96z"/>
  <polygon class="fil1" points="429.19,608.6 169.12,868.67 128.41,827.92 388.45,567.89 "/>
  <path class="fil0" d="M430 497.58l68.83 68.83c35.91,35.91 35.91,94.15 0,130.07l-68.83 68.79c-35.91,35.91 -94.12,35.91 -130.07,0l-68.82 -68.79c-35.92,-35.92 -35.92,-94.16 0,-130.07l68.82 -68.83c35.95,-35.91 94.16,-35.91 130.07,0z"/>
  <path class="fil0" d="M641.13 955.08c-26.17,0 -47.37,-21.24 -47.37,-47.38 0,-26.18 21.2,-47.42 47.37,-47.42 26.18,0 47.42,21.24 47.42,47.42 0,26.14 -21.24,47.38 -47.42,47.38zm0 -137.34c-49.67,0 -89.92,40.29 -89.92,89.96 0,49.67 40.25,89.92 89.92,89.92 49.67,0 89.96,-40.25 89.96,-89.92 0,-49.67 -40.29,-89.96 -89.96,-89.96z"/>
  <path class="fil1" d="M89.95 955.08c-26.17,0 -47.41,-21.24 -47.41,-47.38 0,-26.18 21.24,-47.42 47.41,-47.42 26.18,0 47.38,21.24 47.38,47.42 0,26.14 -21.2,47.38 -47.38,47.38zm0 -137.34c-49.67,0 -89.95,40.29 -89.95,89.96 0,49.67 40.28,89.92 89.95,89.92 49.67,0 89.93,-40.25 89.93,-89.92 0,-49.67 -40.26,-89.96 -89.93,-89.96z"/>
  <path class="fil1" d="M361.25 320.96l313.84 0 0 313.66c0,39.83 15.8,78 43.95,106.15l198.58 198.51 0 -860.85 -861.17 0 198.69 198.58c28.15,28.15 66.32,43.95 106.11,43.95z"/>
  <polygon class="fil1" points="508.58,487.48 799.2,487.48 799.2,196.86 508.58,196.86 "/>
  <path class="fil2" d="M1562.69 876.38c-4.09,-8.89 -9.14,-14.42 -18.66,-14.42 -9.35,0 -14.4,5.53 -18.49,14.42l-23.74 51.51 84.42 0 -23.53 -51.51zm74.51 111.69l-22.97 0 -18.06 -39.44 -104.07 0 -18.13 39.44 -22.94 0 53.52 -116.55c8.54,-18.88 18.87,-30.34 39.48,-30.34 20.81,0 30.94,11.46 39.68,30.34l53.49 116.55z"/>
  <path class="fil2" d="M1688.71 843.1l21.38 0 0 75.64c0,38.17 13.05,48.58 59.93,48.58 47.1,0 59.9,-10.41 59.9,-48.58l0 -75.64 21.59 0 0 75.64c0,51.96 -21.94,71.44 -81.49,71.44 -58.73,0 -81.31,-19.09 -81.31,-71.44l0 -75.64z"/>
  <polygon class="fil2" points="1978.32,988.06 1978.32,864.28 1909.67,864.28 1909.67,843.12 2068.39,843.12 2068.39,864.28 1999.73,864.28 1999.73,988.06 "/>
  <path class="fil2" d="M2280.44 915.57c0,-45.12 -24.31,-52.32 -70.45,-52.32 -46.07,0 -70.38,7.2 -70.38,52.32 0,45.37 24.31,52.35 70.38,52.35 46.14,0 70.45,-6.98 70.45,-52.35zm21.98 0c0,57.89 -31.51,74.61 -92.43,74.61 -60.85,0 -92.39,-16.72 -92.39,-74.61 0,-57.61 31.54,-74.4 92.39,-74.4 60.92,0 92.43,16.79 92.43,74.4z"/>
  <path class="fil2" d="M2391.66 988.06l-21.59 0 0 -144.95 16.34 0c33.86,0 43.18,12.49 78.98,65.47 33.84,50.24 37.75,55.95 55.25,55.95l0.99 0 0 -121.42 21.55 0 0 144.95 -16.33 0c-31.68,0 -41.21,-11.67 -78.6,-65.29 -35.98,-51.26 -38.7,-55.96 -55.63,-55.96l-0.96 0 0 121.25z"/>
  <path class="fil2" d="M2773.65 915.57c0,-45.12 -24.3,-52.32 -70.44,-52.32 -46.08,0 -70.38,7.2 -70.38,52.32 0,45.37 24.3,52.35 70.38,52.35 46.14,0 70.44,-6.98 70.44,-52.35zm21.98 0c0,57.89 -31.5,74.61 -92.42,74.61 -60.86,0 -92.4,-16.72 -92.4,-74.61 0,-57.61 31.54,-74.4 92.4,-74.4 60.92,0 92.42,16.79 92.42,74.4z"/>
  <path class="fil2" d="M2884.29 868.53l0 119.56 -21.03 0 0 -145 20.64 0c7.97,0 11.46,4.48 14.78,8.68l63.01 82.06 63.21 -82.06c3.14,-4.02 6.85,-8.68 14.82,-8.68l20.6 0 0 145 -20.99 0 0 -119.56 -68.86 88.37 -17.32 0 -68.86 -88.37z"/>
  <path class="fil2" d="M3290.77 915.57c0,-45.12 -24.31,-52.32 -70.45,-52.32 -46.07,0 -70.38,7.2 -70.38,52.32 0,45.37 24.31,52.35 70.38,52.35 46.14,0 70.45,-6.98 70.45,-52.35zm21.98 0c0,57.89 -31.5,74.61 -92.43,74.61 -60.85,0 -92.39,-16.72 -92.39,-74.61 0,-57.61 31.54,-74.4 92.39,-74.4 60.93,0 92.43,16.79 92.43,74.4z"/>
  <path class="fil2" d="M3378.45 843.1l21.38 0 0 75.64c0,38.17 13.05,48.58 59.94,48.58 47.09,0 59.9,-10.41 59.9,-48.58l0 -75.64 21.59 0 0 75.64c0,51.96 -21.95,71.44 -81.49,71.44 -58.74,0 -81.32,-19.09 -81.32,-71.44l0 -75.64z"/>
  <path class="fil2" d="M3724.1 967.07c19.05,0 26.84,-6.99 26.84,-18.63 0,-12.31 -9.14,-18.87 -31.15,-20.78l-65.12 -5.71c-29.81,-2.58 -46.53,-14.22 -46.53,-39.62 0,-28.43 21.23,-39.23 47.87,-39.23l107.95 0 0 20.96 -109.89 0c-15.38,0 -24.1,5.29 -24.1,17.6 0,11.22 6.95,17.14 30.13,19.08l62.83 5.51c31.33,2.75 50.2,13.58 50.2,41.31 0,24.16 -14.78,40.5 -50.41,40.5l-116.13 0 0 -20.99 117.51 0z"/>
  <path class="fil2" d="M4147.15 967.07c19.05,0 26.85,-6.99 26.85,-18.63 0,-12.31 -9.14,-18.87 -31.15,-20.78l-65.12 -5.71c-29.81,-2.58 -46.53,-14.22 -46.53,-39.62 0,-28.43 21.23,-39.23 47.87,-39.23l107.95 0 0 20.96 -109.89 0c-15.38,0 -24.13,5.29 -24.13,17.6 0,11.22 6.98,17.14 30.16,19.08l62.83 5.51c31.33,2.75 50.2,13.58 50.2,41.31 0,24.16 -14.78,40.5 -50.41,40.5l-116.14 0 0 -20.99 117.51 0z"/>
  <path class="fil2" d="M4274.37 843.1l44.13 54.68c4.9,6.14 11.11,13.13 14.99,21.63 3.7,-8.5 9.95,-15.49 14.99,-21.63l44.17 -54.68 31.12 0 -63.22 73.52c-5.26,6.18 -16.37,18.28 -16.37,28.44l0 43 -21.38 0 0 -43c0,-9.99 -11.08,-22.51 -16.33,-28.44l-63.22 -73.52 31.12 0z"/>
  <path class="fil2" d="M4587.5 967.07c19.09,0 26.85,-6.99 26.85,-18.63 0,-12.31 -9.14,-18.87 -31.11,-20.78l-65.16 -5.71c-29.78,-2.58 -46.5,-14.22 -46.5,-39.62 0,-28.43 21.2,-39.23 47.84,-39.23l107.98 0 0 20.96 -109.89 0c-15.38,0 -24.13,5.29 -24.13,17.6 0,11.22 6.99,17.14 30.17,19.08l62.79 5.51c31.33,2.75 50.19,13.58 50.19,41.31 0,24.16 -14.77,40.5 -50.37,40.5l-116.13 0 0 -20.99 117.47 0z"/>
  <polygon class="fil2" points="4754.56,988.06 4754.56,864.28 4685.91,864.28 4685.91,843.12 4844.66,843.12 4844.66,864.28 4775.97,864.28 4775.97,988.06 "/>
  <path class="fil2" d="M4958.82 865.36c-29.57,0 -40.08,13.55 -41.63,39.83l143.75 0 0 20.99 -143.75 0c1.55,26.07 12.06,39.4 41.63,39.4l104.84 0 0 22.51 -104.84 0c-46.29,0 -63.43,-24.37 -63.43,-72.53 0,-48.08 17.14,-72.46 63.43,-72.46l104.84 0 0 22.26 -104.84 0z"/>
  <path class="fil2" d="M5153.91 868.53l0 119.56 -21.02 0 0 -145 20.63 0c7.98,0 11.47,4.48 14.79,8.68l63 82.06 63.22 -82.06c3.14,-4.02 6.84,-8.68 14.82,-8.68l20.6 0 0 145 -20.99 0 0 -119.56 -68.9 88.37 -17.29 0 -68.86 -88.37z"/>
  <path class="fil2" d="M5514.67 967.07c19.08,0 26.84,-6.99 26.84,-18.63 0,-12.31 -9.13,-18.87 -31.11,-20.78l-65.16 -5.71c-29.78,-2.58 -46.5,-14.22 -46.5,-39.62 0,-28.43 21.21,-39.23 47.84,-39.23l107.99 0 0 20.96 -109.9 0c-15.38,0 -24.13,5.29 -24.13,17.6 0,11.22 6.99,17.14 30.17,19.08l62.79 5.51c31.33,2.75 50.2,13.58 50.2,41.31 0,24.16 -14.78,40.5 -50.37,40.5l-116.14 0 0 -20.99 117.48 0z"/>
  <polygon class="fil0" points="2645.62,475.93 2645.62,686.15 2472.65,686.15 2472.65,475.93 2098,80.46 2330.3,80.46 2559.12,335.31 2788.45,80.46 3020.26,80.46 "/>
  <polygon class="fil0" points="5561.07,686.15 5386.09,686.15 4933.48,291.14 4933.48,686.15 4758.99,686.15 4758.99,80.46 4933.48,80.46 5386.09,476.88 5386.09,80.46 5561.07,80.46 "/>
  <path class="fil0" d="M1763.93 426.73l116.74 -188.88 116.94 188.88 -233.68 0zm215.3 -346.25l-192.12 0 -379.66 605.68 196.15 0 95.21 -154.09 364.03 0 95.39 154.09 200.66 0 -379.66 -605.68z"/>
  <path class="fil0" d="M4122.76 426.73l116.74 -188.88 116.94 188.88 -233.68 0zm215.3 -346.25l-192.12 0 -379.66 605.68 196.14 0 95.25 -154.09 364 0 95.43 154.09 200.61 0 -379.65 -605.68z"/>
  <path class="fil0" d="M3129.52 426.73l116.74 -188.88 116.94 188.88 -233.68 0zm215.3 -346.25l-192.12 0 -379.66 605.68 196.15 0 95.21 -154.09 364.03 0 95.39 154.09 200.66 0 -379.66 -605.68z"/>
  <line class="fil3 str0" x1="1200.66" y1="0" x2="1200.66" y2= "1076.04" />
 </g>
</svg>
