<?xml version="1.0" encoding="UTF-8"?>
<svg version="1.1" xmlns="http://www.w3.org/2000/svg" width="500" height="500">
<path d="M0 0 C3.68777779 0.46171405 6.39949573 1.57776423 9.58984375 3.44140625 C10.87858398 4.18680664 10.87858398 4.18680664 12.19335938 4.94726562 C13.09892578 5.48029297 14.00449219 6.01332031 14.9375 6.5625 C15.88044922 7.10970703 16.82339844 7.65691406 17.79492188 8.22070312 C19.68104847 9.31524959 21.5656858 10.41236691 23.44873047 11.51220703 C26.6210298 13.36215843 29.80848366 15.18340887 33 17 C34.08667969 17.62132813 35.17335938 18.24265625 36.29296875 18.8828125 C39.16887924 20.526419 42.04714853 22.16585381 44.92578125 23.8046875 C53.10585477 28.46539214 61.27477565 33.13910939 69.375 37.9375 C77.8927444 42.97900944 86.51339271 47.83341583 95.13671875 52.69140625 C103.35896854 57.32502208 111.54824364 62.01618472 119.73876953 66.70556641 C122.82482505 68.47216826 125.91236648 70.23615753 129 72 C130.63001953 72.93199219 130.63001953 72.93199219 132.29296875 73.8828125 C135.16887924 75.526419 138.04714853 77.16585381 140.92578125 78.8046875 C152.00336095 85.11585905 163.02708698 91.50880099 174 98 C176.99899119 99.77254785 179.99924377 101.54294225 183 103.3125 C183.66999023 103.70904785 184.33998047 104.1055957 185.03027344 104.51416016 C188.57778019 106.60625698 192.14743073 108.64923997 195.75 110.64526367 C196.54921875 111.08835373 197.3484375 111.53144379 198.171875 111.98796082 C198.77515625 112.32193375 199.3784375 112.65590668 200 113 C200.22812475 142.19830137 200.40509524 171.39651579 200.51065329 200.59553019 C200.52316037 204.04269217 200.53610359 207.48985238 200.54931641 210.93701172 C200.55325106 211.96641302 200.55325106 211.96641302 200.55726521 213.01661031 C200.60077918 224.12879063 200.67962427 235.24045364 200.77152796 246.35232706 C200.86504358 257.75418963 200.91983875 269.15563235 200.94088495 280.55788934 C200.95393518 286.96262833 200.9846537 293.36619407 201.05730057 299.7705574 C201.12510928 305.79714978 201.14613017 311.8220843 201.13107681 317.84902191 C201.13383109 320.06224703 201.15376664 322.27552677 201.19205475 324.48842239 C201.46677569 341.18315552 201.46677569 341.18315552 197.87321091 345.63438034 C193.77629366 348.2268389 189.72845113 349.14301144 185 350 C185 350.66 185 351.32 185 352 C183.71086513 352.67154933 182.41859796 353.33708859 181.125 354 C180.40570313 354.37125 179.68640625 354.7425 178.9453125 355.125 C177 356 177 356 175 356 C175 356.66 175 357.32 175 358 C174.21302734 358.36738281 174.21302734 358.36738281 173.41015625 358.7421875 C162.78606814 363.86861937 152.73927601 370.09552002 142.6875 376.25 C138.19402368 378.96751975 133.52351322 381.25296226 128.8125 383.56640625 C125.75547525 385.1246397 122.88408183 386.84557454 120.0078125 388.7109375 C116.8251439 390.75428504 113.55516475 392.65061949 110.296875 394.5703125 C107.99825854 395.94393157 107.99825854 395.94393157 106.015625 397.5546875 C103.76840482 399.16606631 101.57357306 400.0064811 99 401 C97.54340709 401.82118454 96.10645067 402.67786113 94.6875 403.5625 C90.18170472 406.31716408 85.61029842 408.92628449 81 411.5 C73.30392598 415.80901376 65.66581303 420.12022901 58.4375 425.1875 C54.20212818 428.06906547 49.92566267 429.67251644 45 431 C45 431.66 45 432.32 45 433 C44.06800781 433.4846875 43.13601563 433.969375 42.17578125 434.46875 C34.56149865 438.46129913 27.16526456 442.63001876 19.90234375 447.23828125 C17.00265543 448.99838816 14.03304638 450.48557435 11 452 C9.96875 452.7425 8.9375 453.485 7.875 454.25 C5 456 5 456 3 455.9375 C2.34 455.628125 1.68 455.31875 1 455 C0.154375 454.62875 -0.69125 454.2575 -1.5625 453.875 C-5.62358275 451.65986395 -9.45609673 449.16725535 -13.31640625 446.62109375 C-15.82822056 445.10376779 -18.24775729 444.00036308 -21 443 C-21 442.34 -21 441.68 -21 441 C-22.175625 440.690625 -22.175625 440.690625 -23.375 440.375 C-28.30096263 438.50653141 -32.53017964 435.76056105 -37 433 C-38.1627133 432.32646207 -39.32892951 431.65890018 -40.5 431 C-44.33305095 428.83190197 -48.09550253 426.54866233 -51.86328125 424.26953125 C-53.94988922 422.99489045 -53.94988922 422.99489045 -56 422 C-56 421.34 -56 420.68 -56 420 C-56.85722656 419.74992187 -57.71445313 419.49984375 -58.59765625 419.2421875 C-62.23999854 417.91237711 -65.16912244 416.20451994 -68.4375 414.125 C-69.58805063 413.40026154 -70.73908724 412.67629399 -71.890625 411.953125 C-72.91671875 411.30859375 -73.9428125 410.6640625 -75 410 C-76.22302868 409.28112055 -77.45071909 408.56995308 -78.6875 407.875 C-81.40764279 406.33529654 -84.07891279 404.74688081 -86.75 403.125 C-90.20166085 401.04048795 -93.68877735 399.07809026 -97.25 397.1875 C-102.7943127 394.20390799 -108.00791023 390.82167495 -113.25 387.34375 C-116.16591475 385.46482165 -119.16444705 383.80003617 -122.21875 382.15625 C-129.11074221 378.44191814 -135.73696788 374.32586871 -142.39453125 370.2109375 C-148.01201182 366.75987366 -153.69037679 363.50825555 -159.49560547 360.38427734 C-162.87650972 358.51551861 -166.09934675 356.45334358 -169.3125 354.3125 C-173.42439146 351.58212939 -177.55931669 349.16618698 -182 347 C-183.61589818 346.0828686 -185.22065598 345.14577426 -186.8125 344.1875 C-187.58207031 343.72730469 -188.35164063 343.26710938 -189.14453125 342.79296875 C-190.55798828 341.90544922 -190.55798828 341.90544922 -192 341 C-192.72915318 340.61832542 -193.45830636 340.23665085 -194.20955509 339.84341037 C-200.48779511 336.26927253 -200.48779511 336.26927253 -201.82960999 332.94417977 C-202.13612878 330.45200086 -202.15761935 328.09483535 -202.08229065 325.58474731 C-202.08998047 324.64448727 -202.0976703 323.70422724 -202.10559314 322.73547447 C-202.12040736 319.58786173 -202.07095329 316.44457716 -202.02172852 313.29736328 C-202.01918958 311.04035036 -202.02061538 308.78333001 -202.02571106 306.52632141 C-202.02829492 300.40018831 -201.97535836 294.27563898 -201.91254544 288.14987421 C-201.85630885 281.74777397 -201.85099887 275.34563798 -201.84031677 268.94332886 C-201.81551574 258.19789002 -201.75928954 247.45314399 -201.67895508 236.70800781 C-201.59630752 225.64195659 -201.53261999 214.57606328 -201.49438477 203.50976562 C-201.49202025 202.82731998 -201.48965574 202.14487433 -201.48721958 201.44174851 C-201.475474 198.018021 -201.46410068 194.59429236 -201.45291245 191.17056298 C-201.35965485 162.77997529 -201.20050456 134.39001882 -201 106 C-197.96229646 104.4000466 -194.92440198 102.80045608 -191.88647461 101.20092773 C-191.03207542 100.75091148 -190.17767624 100.30089523 -189.29738617 99.83724213 C-183.93006158 97.01151475 -178.55397419 94.20353293 -173.16821289 91.41308594 C-164.90564084 87.13045232 -156.69882038 82.7680768 -148.5625 78.25 C-142.11160246 74.66897503 -135.61421233 71.24378358 -128.99731445 67.98071289 C-117.09719472 62.10423902 -105.41903829 55.80861177 -93.8125 49.375 C-87.36593515 45.80434783 -80.87924292 42.37315354 -74.26855469 39.11743164 C-65.46595932 34.77367435 -56.79545238 30.17398689 -48.10009766 25.62060547 C-43.88245395 23.4157922 -39.65900404 21.22223371 -35.43530273 19.02905273 C-26.61645108 14.44963065 -17.8011926 9.86328335 -9 5.25 C-8.19852539 4.83153809 -7.39705078 4.41307617 -6.57128906 3.98193359 C-3.06405201 2.31108096 -3.06405201 2.31108096 0 0 Z " fill="#77A9E7" transform="translate(248,24)"/>
<path d="M0 0 C3.68777779 0.46171405 6.39949573 1.57776423 9.58984375 3.44140625 C10.87858398 4.18680664 10.87858398 4.18680664 12.19335938 4.94726562 C13.09892578 5.48029297 14.00449219 6.01332031 14.9375 6.5625 C15.88044922 7.10970703 16.82339844 7.65691406 17.79492188 8.22070312 C19.68104847 9.31524959 21.5656858 10.41236691 23.44873047 11.51220703 C26.6210298 13.36215843 29.80848366 15.18340887 33 17 C34.08667969 17.62132813 35.17335938 18.24265625 36.29296875 18.8828125 C39.16887924 20.526419 42.04714853 22.16585381 44.92578125 23.8046875 C53.10585477 28.46539214 61.27477565 33.13910939 69.375 37.9375 C77.8927444 42.97900944 86.51339271 47.83341583 95.13671875 52.69140625 C103.35896854 57.32502208 111.54824364 62.01618472 119.73876953 66.70556641 C122.82482505 68.47216826 125.91236648 70.23615753 129 72 C130.63001953 72.93199219 130.63001953 72.93199219 132.29296875 73.8828125 C135.16887924 75.526419 138.04714853 77.16585381 140.92578125 78.8046875 C152.00336095 85.11585905 163.02708698 91.50880099 174 98 C186.9142339 105.649643 186.9142339 105.649643 200 113 C196.43130539 116.10821789 192.71760609 118.35012092 188.58203125 120.5859375 C185.72889305 122.14847309 182.92807774 123.78691985 180.125 125.4375 C175.28395733 128.27428934 170.39226836 130.99522183 165.45703125 133.6640625 C163.4151492 134.774275 161.38995728 135.90447857 159.375 137.0625 C156.96924719 138.44358031 154.55721819 139.79284996 152.125 141.125 C147.53303899 143.66556949 143.01819871 146.33139918 138.5 149 C132.71096304 152.41829444 126.90433092 155.78372431 121 159 C115.48045271 162.02143376 110.04565019 165.14774077 104.66015625 168.40234375 C100.81963431 170.70891273 96.94725729 172.95951689 93.07421875 175.2109375 C91.03251589 176.39912036 88.99342307 177.59180004 86.95703125 178.7890625 C81.17623566 182.18425163 75.35406474 185.47510877 69.45703125 188.6640625 C67.4151492 189.774275 65.38995728 190.90447857 63.375 192.0625 C58.54061664 194.83779415 53.66510211 197.53864348 48.77734375 200.21875 C43.89715325 202.90414583 39.1077297 205.7139175 34.33984375 208.59375 C29.07749291 211.75643164 23.71456097 214.74271527 18.33203125 217.6953125 C16.75142057 218.57960725 15.18637686 219.49220838 13.63671875 220.4296875 C5.79054255 225.09783267 5.79054255 225.09783267 1 224 C-1.27286908 222.68648789 -3.38697029 221.23256888 -5.5234375 219.70703125 C-8.90717036 217.37471065 -12.48439252 215.50492945 -16.10546875 213.5703125 C-19.14962785 211.91882538 -22.13839051 210.19075742 -25.125 208.4375 C-30.85137559 205.07684715 -36.61935838 201.81048579 -42.47265625 198.67578125 C-48.62354983 195.36933625 -54.61999461 191.85827678 -60.59448242 188.24707031 C-64.52224358 185.87630909 -68.47184748 183.5721741 -72.5 181.375 C-74.59299389 180.22385336 -76.67310915 179.05477232 -78.75 177.875 C-85.3270453 174.14233445 -91.89250969 170.49337491 -98.6953125 167.18359375 C-102.15517367 165.40674979 -105.44449083 163.3673252 -108.76171875 161.33984375 C-111.43872601 159.73737693 -114.19824344 158.37107236 -117 157 C-123.47403336 153.57725285 -129.68709713 149.75803672 -135.88671875 145.8671875 C-139.80647205 143.51631915 -143.86077957 141.55089766 -147.97265625 139.5625 C-152.37996353 137.28776076 -156.50000598 134.59566407 -160.68359375 131.9375 C-164.06901706 129.95967908 -167.3722646 128.46760471 -171 127 C-171 126.34 -171 125.68 -171 125 C-171.845625 124.75121094 -172.69125 124.50242187 -173.5625 124.24609375 C-177.30149848 122.8907068 -180.59772839 121.08677732 -184 119.0625 C-187.40531935 117.05871493 -190.78940318 115.10161665 -194.3515625 113.3828125 C-197.21912365 111.8855903 -197.96366954 111.00535834 -199 108 C-199.66 108 -200.32 108 -201 108 C-200 105 -200 105 -197.3515625 103.44921875 C-196.11359483 102.85313473 -194.87091575 102.26678755 -193.625 101.6875 C-192.16553744 100.98280267 -190.70729657 100.27557196 -189.25 99.56640625 C-188.42628906 99.16695801 -187.60257813 98.76750977 -186.75390625 98.35595703 C-181.33827516 95.68943087 -175.98381811 92.90346679 -170.625 90.125 C-169.45557861 89.51922119 -168.28615723 88.91344238 -167.08129883 88.28930664 C-159.69979552 84.44894732 -152.39912075 80.49142999 -145.15063477 76.40673828 C-139.8766809 73.44813401 -134.52043608 70.70554844 -129.09790039 68.03100586 C-117.1644482 62.13694625 -105.45202835 55.82689847 -93.8125 49.375 C-87.36593515 45.80434783 -80.87924292 42.37315354 -74.26855469 39.11743164 C-65.46595932 34.77367435 -56.79545238 30.17398689 -48.10009766 25.62060547 C-43.88245395 23.4157922 -39.65900404 21.22223371 -35.43530273 19.02905273 C-26.61645108 14.44963065 -17.8011926 9.86328335 -9 5.25 C-8.19852539 4.83153809 -7.39705078 4.41307617 -6.57128906 3.98193359 C-3.06405201 2.31108096 -3.06405201 2.31108096 0 0 Z " fill="#A8D1FE" transform="translate(248,24)"/>
<path d="M0 0 C0.22812592 29.07090637 0.40509584 58.14172539 0.51065329 87.21334792 C0.52316036 90.64548863 0.53610358 94.07762756 0.54931641 97.50976562 C0.55193951 98.19304255 0.55456261 98.87631947 0.55726521 99.58030175 C0.6007789 110.64398433 0.67962383 121.70714732 0.77152796 132.77052166 C0.86504424 144.12264707 0.91983892 155.47438737 0.94088495 166.8269223 C0.95393505 173.20371788 0.98465268 179.57933506 1.05730057 185.95575333 C1.1251106 191.95608279 1.14612993 197.95474713 1.13107681 203.95542336 C1.13383103 206.15897353 1.15376587 208.36257859 1.19205475 210.56579781 C1.46677227 227.18702185 1.46677227 227.18702185 -2.12678909 231.62878036 C-6.22430796 234.2214058 -10.2704616 235.14359504 -15 236 C-15 236.66 -15 237.32 -15 238 C-16.28913487 238.67154933 -17.58140204 239.33708859 -18.875 240 C-19.59429687 240.37125 -20.31359375 240.7425 -21.0546875 241.125 C-23 242 -23 242 -25 242 C-25 242.66 -25 243.32 -25 244 C-25.52464844 244.24492187 -26.04929687 244.48984375 -26.58984375 244.7421875 C-37.21393186 249.86861937 -47.26072399 256.09552002 -57.3125 262.25 C-61.80597632 264.96751975 -66.47648678 267.25296226 -71.1875 269.56640625 C-74.24452475 271.1246397 -77.11591817 272.84557454 -79.9921875 274.7109375 C-83.1748561 276.75428504 -86.44483525 278.65061949 -89.703125 280.5703125 C-92.00174146 281.94393157 -92.00174146 281.94393157 -93.984375 283.5546875 C-96.23159518 285.16606631 -98.42642694 286.0064811 -101 287 C-102.45659291 287.82118454 -103.89354933 288.67786113 -105.3125 289.5625 C-109.81829528 292.31716408 -114.38970158 294.92628449 -119 297.5 C-126.69607402 301.80901376 -134.33418697 306.12022901 -141.5625 311.1875 C-145.79787182 314.06906547 -150.07433733 315.67251644 -155 317 C-155 317.66 -155 318.32 -155 319 C-155.93199219 319.4846875 -156.86398437 319.969375 -157.82421875 320.46875 C-165.43850135 324.46129913 -172.83473544 328.63001876 -180.09765625 333.23828125 C-183.00093368 335.00056674 -185.95796296 336.4925447 -189 338 C-192.465 339.98 -192.465 339.98 -196 342 C-196.33 265.77 -196.66 189.54 -197 111 C-193.7 109.35 -190.4 107.7 -187 106 C-185.00683513 104.87869339 -183.02501272 103.73662884 -181.0625 102.5625 C-177.12269132 100.23005214 -173.15815399 97.97956782 -169.125 95.8125 C-166.32123952 94.30094207 -163.69862023 92.79480527 -161.0625 91 C-157.1476919 88.44339063 -153.0099188 86.49566567 -148.81640625 84.4375 C-145.69723513 82.84546814 -142.89321782 80.96985043 -140 79 C-137.24105885 77.44756829 -134.45832742 75.94383127 -131.671875 74.44140625 C-127.1057144 71.97808277 -122.62807577 69.41104822 -118.25 66.625 C-114.23663485 64.09349275 -110.0930769 61.84933526 -105.91796875 59.59765625 C-100.88228587 56.8405019 -95.94705521 53.91227672 -91 51 C-85.27061088 47.62717196 -79.54546015 44.27062061 -73.6875 41.125 C-69.22284311 38.71897453 -64.89139713 36.13845132 -60.5625 33.5 C-55.05125097 30.14526603 -49.45692779 27.15453466 -43.6484375 24.3359375 C-40.56714029 22.78165484 -37.68739421 21.02235419 -34.79296875 19.1484375 C-32.49941445 17.67936351 -30.13563585 16.35709879 -27.76171875 15.0234375 C-25.90590168 13.94533534 -24.11401854 12.79134396 -22.3125 11.625 C-17.96114821 8.86602156 -13.37651462 6.65454716 -8.734375 4.4296875 C-5.9982079 3.09315226 -5.9982079 3.09315226 -3.765625 1.3203125 C-2 0 -2 0 0 0 Z " fill="#FEAE13" transform="translate(448,138)"/>
<path d="M0 0 C1.43656485 0.4723529 2.87257464 0.94639414 4.30834961 1.42114258 C5.10808701 1.68494217 5.9078244 1.94874176 6.73179626 2.22053528 C11.68528516 3.92279411 15.7818069 5.76172524 19 10 C20.20714026 15.2522143 19.57294433 20.69708195 19 26 C20.13695312 25.29423828 20.13695312 25.29423828 21.296875 24.57421875 C27.81622326 20.77754628 34.90290908 19.93400032 42.22265625 21.46484375 C47.53475003 23.04816623 52.02156213 25.63701106 56.6953125 28.578125 C59.15789782 30.14834423 59.15789782 30.14834423 62.5625 31.75 C65 33 65 33 66 35 C68.01669827 36.13350534 68.01669827 36.13350534 70 37 C70 37.99 70 38.98 70 40 C71.0828125 40.3403125 71.0828125 40.3403125 72.1875 40.6875 C77.03754673 42.95085514 79.72065911 46.27850817 82 51 C83.485 51.99 83.485 51.99 85 53 C86.44385434 55.6470663 87.73010354 58.27174187 89 61 C89.41636719 61.78375 89.83273438 62.5675 90.26171875 63.375 C93.07017978 68.9075839 94.67349115 74.24247208 95.75 80.3125 C95.86545166 80.96275146 95.98090332 81.61300293 96.09985352 82.28295898 C98.24994705 95.75568307 98.13773914 109.36269595 98.09765625 122.9609375 C98.09578656 124.84664878 98.09436526 126.73236056 98.09336853 128.61807251 C98.08958672 133.5334207 98.07979452 138.4487384 98.06866455 143.36407471 C98.05835615 148.39896228 98.05385089 153.43385487 98.04882812 158.46875 C98.03816749 168.31251325 98.0211445 178.15625407 98 188 C94.92254092 186.78534783 91.93823196 185.52352768 89 184 C89 183.34 89 182.68 89 182 C88.34 181.938125 87.68 181.87625 87 181.8125 C82.59199142 180.61866434 79.03898086 179.56895478 76 176 C74.99951032 171.10146347 75.29093244 166.27532253 75.5625 161.3125 C75.61124648 159.95521009 75.65620723 158.5977786 75.69726562 157.24023438 C75.77340081 154.76272062 75.86801062 152.28566059 75.98657227 149.80981445 C76.21121455 147.04619345 76.21121455 147.04619345 75 145 C74.91929434 143.23055227 74.90330695 141.45799215 74.91821289 139.68676758 C74.9247438 138.5741304 74.93127472 137.46149323 74.93800354 136.31513977 C74.94943893 135.10383896 74.96087433 133.89253815 74.97265625 132.64453125 C74.98532009 130.07617331 74.99767972 127.50781385 75.00976562 124.93945312 C75.03333231 120.89358944 75.06171226 116.84778922 75.09594727 112.80200195 C76.260246 81.38572888 76.260246 81.38572888 61.7421875 54.65234375 C59.34649645 52.38019731 56.80298119 50.73517883 54 49 C53.67 48.34 53.34 47.68 53 47 C46.00334349 42.24227357 38.25575862 41.706471 30 43 C24.39692282 47.47729769 23.10947286 54.18220467 22 61 C21.37128557 67.49020665 21.53066978 74.0117378 21.609375 80.5234375 C21.61685434 82.36430236 21.62253924 84.20517529 21.62652588 86.04605103 C21.64164917 90.84324931 21.68081274 95.63994729 21.7253418 100.43695068 C21.76658507 105.35112749 21.78459835 110.26538675 21.8046875 115.1796875 C21.84732275 124.78667568 21.91540845 134.39329591 22 144 C19.43361053 142.75751767 16.8720693 141.50639433 14.3125 140.25 C13.59126953 139.90195312 12.87003906 139.55390625 12.12695312 139.1953125 C8.04784238 137.18369624 4.27093214 135.22809919 1 132 C0.36076355 129.99380493 0.36076355 129.99380493 0.34057617 127.82666016 C0.32093811 126.99473145 0.30130005 126.16280273 0.28106689 125.30566406 C0.28499451 124.39268555 0.28892212 123.47970703 0.29296875 122.5390625 C0.27021881 121.06590576 0.27021881 121.06590576 0.24700928 119.56298828 C0.20282301 116.25010559 0.19498812 112.9381544 0.1875 109.625 C0.16458456 107.28432474 0.13987951 104.94366642 0.11352539 102.60302734 C0.04109317 95.1811571 0.01783744 87.75954939 0.00448608 80.33740234 C-0.00019805 77.89680677 -0.00618253 75.456217 -0.01245117 73.015625 C-0.07393228 48.67695831 -0.0630446 24.33864678 0 0 Z " fill="#FEFEFE" transform="translate(103,216)"/>
<path d="M0 0 C0.61183639 3.82057836 0.80400769 7.19683205 0 11 C-2.75380466 13.96303982 -6.37693555 15.29869878 -10 17 C-13.1262736 18.66880668 -16.21691797 20.40012192 -19.3125 22.125 C-20.08899902 22.54531494 -20.86549805 22.96562988 -21.66552734 23.39868164 C-25.78038977 25.64545519 -29.35323941 28.03059269 -33 31 C-33.66 31 -34.32 31 -35 31 C-36.3031528 34.10751821 -37.4650253 37.25267145 -38.5625 40.4375 C-38.81128906 41.15808594 -39.06007813 41.87867188 -39.31640625 42.62109375 C-40.84933168 47.95567425 -41.15225653 53.19402741 -41.16113281 58.71435547 C-41.16609772 59.46315979 -41.17106262 60.21196411 -41.17617798 60.98345947 C-41.1907058 63.44471171 -41.19758511 65.90589955 -41.203125 68.3671875 C-41.20595238 69.21223972 -41.20877975 70.05729195 -41.21169281 70.92795181 C-41.22664591 75.39809733 -41.23590042 79.86821087 -41.24023438 84.33837891 C-41.24571973 88.94038561 -41.26976017 93.54209656 -41.29820633 98.14401054 C-41.31688495 101.69748781 -41.32204104 105.25089446 -41.32357025 108.80441666 C-41.32658445 110.50038396 -41.33457106 112.1963504 -41.34775543 113.89226913 C-41.36492937 116.27069019 -41.36290869 118.64839652 -41.35644531 121.02685547 C-41.3656601 121.7180246 -41.37487488 122.40919373 -41.3843689 123.12130737 C-41.33534632 128.91891431 -40.21911451 134.78088549 -36 139 C-33.62778044 139.50135199 -33.62778044 139.50135199 -31 139 C-29.28724465 137.72641268 -27.62332967 136.38576923 -26 135 C-24.00245698 133.99510106 -22.00180831 132.99637518 -20 132 C-15.81950237 129.6401075 -11.68880656 127.19372584 -7.54882812 124.76367188 C-6.30842773 124.03954102 -6.30842773 124.03954102 -5.04296875 123.30078125 C-4.29039795 122.85903564 -3.53782715 122.41729004 -2.76245117 121.9621582 C-1 121 -1 121 0 121 C0.13504138 122.93559313 0.23201129 124.873872 0.3125 126.8125 C0.37050781 127.89144531 0.42851562 128.97039062 0.48828125 130.08203125 C0 133 0 133 -2.01171875 134.5859375 C-2.99785156 135.05257812 -3.98398437 135.51921875 -5 136 C-6.28005447 136.74525944 -7.5529709 137.50285248 -8.8203125 138.26953125 C-16.03181802 142.53456193 -23.24782618 146.74855872 -30.64453125 150.6875 C-32.93059073 151.96132419 -35.07735869 153.35579573 -37.25 154.8125 C-40.82642128 157.06053623 -43.68622611 158.0798847 -48 158 C-52.00122796 156.55955794 -53.30801807 155.25330392 -55.35116577 151.55279541 C-59.5976009 141.56083981 -59.73395614 132.44710195 -59.6640625 121.734375 C-59.66744128 119.88795657 -59.67230267 118.04154032 -59.67855835 116.19512939 C-59.68588713 112.34227128 -59.67535932 108.48999671 -59.65185547 104.63720703 C-59.62345076 99.74784396 -59.63974437 94.85985877 -59.66971779 89.97054672 C-59.68796892 86.16099062 -59.68195084 82.35174963 -59.66907883 78.54218292 C-59.66578951 76.74202554 -59.66967034 74.94183767 -59.68147659 73.141716 C-59.76968614 55.91026646 -57.10075247 38.23519802 -45 25 C-41.5877428 21.88022199 -37.88848556 19.73410422 -33.8515625 17.546875 C-30.23612979 15.58562657 -26.64842474 13.57707853 -23.0625 11.5625 C-22.37027344 11.17425049 -21.67804688 10.78600098 -20.96484375 10.38598633 C-16.22295907 7.71643523 -11.54417602 4.96024676 -6.91796875 2.09375 C-4.61352016 0.77960416 -2.67445449 0 0 0 Z " fill="#FFFDF9" transform="translate(378,222)"/>
<path d="M0 0 C4.59942623 0.25325437 8.04559953 2.63102244 11.8125 5.0625 C12.7087207 5.62807617 12.7087207 5.62807617 13.62304688 6.20507812 C15.08636577 7.12989566 16.54379523 8.06402065 18 9 C16.52440331 13.42679007 14.09942632 13.91432696 10 16 C9.34 16 8.68 16 8 16 C7.505 17.485 7.505 17.485 7 19 C2.78694365 21.82546261 -2.1711977 23.55135931 -7 25 C-7 25.66 -7 26.32 -7 27 C-8.80078125 28.26171875 -8.80078125 28.26171875 -11.3125 29.6875 C-15.12468246 31.89511979 -18.86353968 34.16966974 -22.5625 36.5625 C-25.84191172 38.66740331 -29.12973068 40.65669957 -32.5625 42.5 C-36.76723649 44.78192994 -40.58653982 47.47312227 -44.4765625 50.25 C-47.66577285 52.46171244 -50.96239794 54.43649941 -54.3046875 56.40625 C-64.35145384 62.34694662 -74.28797174 68.52531449 -84 75 C-84.99 75 -85.98 75 -87 75 C-87 75.66 -87 76.32 -87 77 C-89.046875 78.47265625 -89.046875 78.47265625 -91.75 80.0625 C-92.63171875 80.58972656 -93.5134375 81.11695313 -94.421875 81.66015625 C-98.45199613 83.75459799 -98.45199613 83.75459799 -101 84 C-102.859375 83.1796875 -102.859375 83.1796875 -104.75 81.875 C-105.43578125 81.41480469 -106.1215625 80.95460938 -106.828125 80.48046875 C-107.54484375 79.99191406 -108.2615625 79.50335938 -109 79 C-110.49598423 78.05610519 -111.99581976 77.1182782 -113.5 76.1875 C-114.66666667 75.45833333 -115.83333333 74.72916667 -117 74 C-113.29410944 70.91291669 -109.42089735 68.26249668 -105.3125 65.75 C-104.73177734 65.38648438 -104.15105469 65.02296875 -103.55273438 64.6484375 C-99.2465343 62 -99.2465343 62 -97 62 C-97 61.34 -97 60.68 -97 60 C-96.278125 59.7525 -95.55625 59.505 -94.8125 59.25 C-91.97670763 58.13975425 -91.97670763 58.13975425 -89.875 56.25 C-87.33682412 54.26360148 -85.02036796 52.87400636 -82.1875 51.375 C-74.5516013 47.30046803 -67.29909056 42.64121241 -60 38 C-59.0085498 37.37327393 -59.0085498 37.37327393 -57.99707031 36.73388672 C-56.09988573 35.53454435 -54.2056287 34.33073212 -52.3125 33.125 C-51.21550781 32.42632812 -50.11851562 31.72765625 -48.98828125 31.0078125 C-45.99976124 29.06012138 -45.99976124 29.06012138 -43.35546875 26.8828125 C-41.27710908 25.22150344 -39.34669479 23.97834805 -37 22.75 C-28.78252449 18.30000496 -20.91752218 13.24250067 -13.0625 8.1875 C-9.46447137 5.87972653 -5.84560069 3.87349777 -2 2 C-1.34 1.34 -0.68 0.68 0 0 Z " fill="#FCFEFF" transform="translate(300,93)"/>
<path d="M0 0 C0 0.66 0 1.32 0 2 C-1.65848177 3.01351664 -3.32665961 4.01120795 -5 5 C-6.36984198 6.29579647 -7.7151049 7.61992749 -9 9 C-8.6507442 5.85669777 -8.16074267 4.20508548 -6.1875 1.6875 C-4 0 -4 0 0 0 Z " fill="#83ABDF" transform="translate(137,258)"/>
</svg>
