<svg xmlns="http://www.w3.org/2000/svg" xmlns:xlink="http://www.w3.org/1999/xlink" width="500" zoomAndPan="magnify" viewBox="0 0 375 374.999991" height="500" preserveAspectRatio="xMidYMid meet" version="1.0"><defs><clipPath id="f075c771d3"><path d="M 133 151.1875 L 161 151.1875 L 161 292 L 133 292 Z M 133 151.1875 " clip-rule="nonzero"/></clipPath><clipPath id="1ecaecf8b1"><path d="M 214.027344 151.1875 L 242 151.1875 L 242 319.1875 L 214.027344 319.1875 Z M 214.027344 151.1875 " clip-rule="nonzero"/></clipPath><clipPath id="5ca65a0e1c"><path d="M 133 151.1875 L 242 151.1875 L 242 179 L 133 179 Z M 133 151.1875 " clip-rule="nonzero"/></clipPath><clipPath id="e0d45904e6"><path d="M 160.753906 291.789062 L 242 291.789062 L 242 319.1875 L 160.753906 319.1875 Z M 160.753906 291.789062 " clip-rule="nonzero"/></clipPath><clipPath id="6e6a47f58b"><path d="M 58.597656 217.09375 L 86.609375 217.09375 L 86.609375 319.1875 L 58.597656 319.1875 Z M 58.597656 217.09375 " clip-rule="nonzero"/></clipPath><clipPath id="b78b58e4de"><path d="M 0 151.1875 L 80 151.1875 L 80 255 L 0 255 Z M 0 151.1875 " clip-rule="nonzero"/></clipPath><clipPath id="ff2a075c0a"><path d="M 288.171875 217.09375 L 316.183594 217.09375 L 316.183594 319.1875 L 288.171875 319.1875 Z M 288.171875 217.09375 " clip-rule="nonzero"/></clipPath><clipPath id="15b8e0cdc9"><path d="M 266.203125 241 L 374.59375 241 L 374.59375 269 L 266.203125 269 Z M 266.203125 241 " clip-rule="nonzero"/></clipPath><clipPath id="c46410d22f"><path d="M 295 151.1875 L 374.59375 151.1875 L 374.59375 254.441406 L 295 254.441406 Z M 295 151.1875 " clip-rule="nonzero"/></clipPath><clipPath id="25302afd3d"><path d="M 125 55.53125 L 256 55.53125 L 256 146.28125 L 125 146.28125 Z M 125 55.53125 " clip-rule="nonzero"/></clipPath><clipPath id="42e917e26a"><path d="M 241 74 L 262.5 74 L 262.5 96 L 241 96 Z M 241 74 " clip-rule="nonzero"/></clipPath><clipPath id="d8b534a725"><path d="M 112.5 55.53125 L 262.5 55.53125 L 262.5 146.28125 L 112.5 146.28125 Z M 112.5 55.53125 " clip-rule="nonzero"/></clipPath></defs><g clip-path="url(#f075c771d3)"><path fill="#ffffff" d="M 160.792969 151.1875 L 160.792969 291.917969 L 133.242188 291.917969 L 133.242188 151.1875 L 160.792969 151.1875 " fill-opacity="1" fill-rule="nonzero"/></g><g clip-path="url(#1ecaecf8b1)"><path fill="#ffffff" d="M 241.734375 151.1875 L 241.734375 319.476562 L 214.175781 319.476562 L 214.175781 151.1875 L 241.734375 151.1875 " fill-opacity="1" fill-rule="nonzero"/></g><g clip-path="url(#5ca65a0e1c)"><path fill="#ffffff" d="M 241.734375 151.1875 L 241.734375 178.742188 L 133.238281 178.742188 L 133.238281 151.1875 L 241.734375 151.1875 " fill-opacity="1" fill-rule="nonzero"/></g><g clip-path="url(#e0d45904e6)"><path fill="#ffffff" d="M 241.734375 291.917969 L 241.734375 319.476562 L 160.792969 319.476562 L 160.792969 291.917969 L 241.734375 291.917969 " fill-opacity="1" fill-rule="nonzero"/></g><g clip-path="url(#6e6a47f58b)"><path fill="#ffffff" d="M 86.492188 319.476562 L 58.9375 319.476562 L 58.9375 217.617188 L 86.492188 217.617188 L 86.492188 319.476562 " fill-opacity="1" fill-rule="nonzero"/></g><path fill="#ffffff" d="M 0.378906 268.792969 L 0.378906 241.238281 L 108.636719 241.238281 L 108.636719 268.792969 L 0.378906 268.792969 " fill-opacity="1" fill-rule="nonzero"/><g clip-path="url(#b78b58e4de)"><path fill="#ffffff" d="M 48.683594 151.261719 L 0.378906 241.234375 L 24.660156 254.265625 L 79.957031 151.261719 L 48.683594 151.261719 " fill-opacity="1" fill-rule="nonzero"/></g><g clip-path="url(#ff2a075c0a)"><path fill="#ffffff" d="M 288.480469 319.476562 L 316.035156 319.476562 L 316.035156 217.617188 L 288.480469 217.617188 L 288.480469 319.476562 " fill-opacity="1" fill-rule="nonzero"/></g><g clip-path="url(#15b8e0cdc9)"><path fill="#ffffff" d="M 374.59375 268.792969 L 374.59375 241.238281 L 266.339844 241.238281 L 266.339844 268.792969 L 374.59375 268.792969 " fill-opacity="1" fill-rule="nonzero"/></g><g clip-path="url(#c46410d22f)"><path fill="#ffffff" d="M 326.292969 151.261719 L 374.59375 241.234375 L 350.3125 254.265625 L 295.015625 151.261719 L 326.292969 151.261719 " fill-opacity="1" fill-rule="nonzero"/></g><path fill="#d4621c" d="M 104.449219 300.773438 C 104.449219 301.011719 104.355469 301.179688 104.070312 301.179688 L 98.191406 301.179688 L 98.191406 304.84375 L 102.664062 304.84375 C 102.902344 304.84375 103.046875 304.988281 103.046875 305.25 L 103.046875 307.605469 C 103.046875 307.867188 102.902344 308.007812 102.664062 308.007812 L 98.191406 308.007812 L 98.191406 311.53125 L 104.070312 311.53125 C 104.355469 311.53125 104.449219 311.648438 104.449219 311.914062 L 104.449219 314.292969 C 104.449219 314.53125 104.355469 314.675781 104.070312 314.675781 L 95.308594 314.675781 C 95.09375 314.675781 94.953125 314.53125 94.953125 314.292969 L 94.953125 298.394531 C 94.953125 298.15625 95.09375 298.015625 95.308594 298.015625 L 104.070312 298.015625 C 104.355469 298.015625 104.449219 298.15625 104.449219 298.394531 L 104.449219 300.773438 " fill-opacity="1" fill-rule="nonzero"/><path fill="#d4621c" d="M 112.066406 306.582031 C 112.683594 306.582031 113.019531 306.25 113.019531 305.628906 L 113.019531 302.035156 C 113.019531 301.417969 112.683594 301.085938 112.066406 301.085938 L 109.6875 301.085938 L 109.6875 306.582031 Z M 116.113281 306.226562 C 116.113281 307.605469 115.660156 308.582031 114.777344 309.128906 L 116.015625 314.246094 C 116.089844 314.53125 115.945312 314.675781 115.683594 314.675781 L 113.351562 314.675781 C 113.113281 314.675781 112.996094 314.554688 112.945312 314.339844 L 111.804688 309.652344 L 109.6875 309.652344 L 109.6875 314.292969 C 109.6875 314.53125 109.542969 314.675781 109.304688 314.675781 L 106.972656 314.675781 C 106.734375 314.675781 106.59375 314.53125 106.59375 314.292969 L 106.59375 298.394531 C 106.59375 298.15625 106.734375 298.015625 106.972656 298.015625 L 112.683594 298.015625 C 114.921875 298.015625 116.113281 299.203125 116.113281 301.441406 L 116.113281 306.226562 " fill-opacity="1" fill-rule="nonzero"/><path fill="#d4621c" d="M 123.96875 306.582031 C 124.589844 306.582031 124.921875 306.25 124.921875 305.628906 L 124.921875 302.035156 C 124.921875 301.417969 124.589844 301.085938 123.96875 301.085938 L 121.589844 301.085938 L 121.589844 306.582031 Z M 128.015625 306.226562 C 128.015625 307.605469 127.5625 308.582031 126.683594 309.128906 L 127.917969 314.246094 C 127.992188 314.53125 127.847656 314.675781 127.585938 314.675781 L 125.253906 314.675781 C 125.015625 314.675781 124.898438 314.554688 124.851562 314.339844 L 123.707031 309.652344 L 121.589844 309.652344 L 121.589844 314.292969 C 121.589844 314.53125 121.445312 314.675781 121.207031 314.675781 L 118.875 314.675781 C 118.636719 314.675781 118.496094 314.53125 118.496094 314.292969 L 118.496094 298.394531 C 118.496094 298.15625 118.636719 298.015625 118.875 298.015625 L 124.589844 298.015625 C 126.824219 298.015625 128.015625 299.203125 128.015625 301.441406 L 128.015625 306.226562 " fill-opacity="1" fill-rule="nonzero"/><path fill="#d4621c" d="M 135.964844 311.601562 C 136.582031 311.601562 136.917969 311.292969 136.917969 310.652344 L 136.917969 302.035156 C 136.917969 301.417969 136.582031 301.085938 135.964844 301.085938 L 134.441406 301.085938 C 133.824219 301.085938 133.488281 301.417969 133.488281 302.035156 L 133.488281 310.652344 C 133.488281 311.292969 133.824219 311.601562 134.441406 311.601562 Z M 130.394531 301.441406 C 130.394531 299.203125 131.585938 298.015625 133.824219 298.015625 L 136.488281 298.015625 C 138.726562 298.015625 139.917969 299.203125 139.917969 301.441406 L 139.917969 311.246094 C 139.917969 313.484375 138.726562 314.675781 136.488281 314.675781 L 133.824219 314.675781 C 131.585938 314.675781 130.394531 313.484375 130.394531 311.246094 L 130.394531 301.441406 " fill-opacity="1" fill-rule="nonzero"/><path fill="#d4621c" d="M 147.769531 306.582031 C 148.390625 306.582031 148.722656 306.25 148.722656 305.628906 L 148.722656 302.035156 C 148.722656 301.417969 148.390625 301.085938 147.769531 301.085938 L 145.390625 301.085938 L 145.390625 306.582031 Z M 151.816406 306.226562 C 151.816406 307.605469 151.363281 308.582031 150.484375 309.128906 L 151.722656 314.246094 C 151.792969 314.53125 151.648438 314.675781 151.386719 314.675781 L 149.054688 314.675781 C 148.816406 314.675781 148.699219 314.554688 148.652344 314.339844 L 147.507812 309.652344 L 145.390625 309.652344 L 145.390625 314.292969 C 145.390625 314.53125 145.25 314.675781 145.011719 314.675781 L 142.679688 314.675781 C 142.441406 314.675781 142.296875 314.53125 142.296875 314.292969 L 142.296875 298.394531 C 142.296875 298.15625 142.441406 298.015625 142.679688 298.015625 L 148.390625 298.015625 C 150.625 298.015625 151.816406 299.203125 151.816406 301.441406 L 151.816406 306.226562 " fill-opacity="1" fill-rule="nonzero"/><g clip-path="url(#25302afd3d)"><path fill="#5f9df7" d="M 221.957031 130.890625 L 215.75 136.210938 L 213.671875 142.210938 L 125.390625 142.210938 L 125.390625 55.90625 L 168.148438 55.90625 L 168.148438 63.613281 L 252.101562 63.613281 L 252.101562 106.101562 L 243.847656 108.179688 L 239.039062 115.273438 L 240.132812 122.503906 L 230.71875 123.183594 L 228.503906 129.082031 Z M 248.519531 116.09375 L 245.042969 122.535156 L 245.246094 131.574219 L 236.824219 129.21875 L 234.199219 134.609375 L 228.265625 135.664062 L 220.117188 140.199219 L 219.09375 142.175781 L 252.167969 146.03125 L 255.78125 115 Z M 248.519531 116.09375 " fill-opacity="1" fill-rule="nonzero"/></g><path fill="#d4f1ff" d="M 221.957031 130.890625 L 215.75 136.210938 L 214.625 139.484375 L 128.253906 139.484375 L 128.253906 66.546875 L 249.542969 66.546875 L 249.542969 106.714844 L 243.8125 108.148438 L 239.007812 115.238281 L 240.097656 122.46875 L 230.6875 123.152344 L 228.46875 129.050781 Z M 248.519531 116.09375 L 245.042969 122.535156 L 245.246094 131.574219 L 236.824219 129.21875 L 234.199219 134.609375 L 228.265625 135.664062 L 221.136719 139.621094 L 249.984375 142.960938 L 253.191406 115.375 Z M 248.519531 116.09375 " fill-opacity="1" fill-rule="nonzero"/><path fill="#f7ba20" d="M 125.933594 106.339844 L 113.523438 127.890625 C 112.5 129.664062 113.796875 131.914062 115.839844 131.914062 L 140.699219 131.914062 C 142.746094 131.914062 144.042969 129.699219 143.019531 127.890625 L 130.574219 106.339844 C 129.550781 104.566406 126.992188 104.566406 125.933594 106.339844 Z M 125.933594 106.339844 " fill-opacity="1" fill-rule="nonzero"/><g clip-path="url(#42e917e26a)"><path fill="#d4621c" d="M 251.621094 74.59375 C 257.417969 74.59375 262.125 79.300781 262.125 85.097656 C 262.125 90.894531 257.417969 95.597656 251.621094 95.597656 C 245.824219 95.597656 241.121094 90.894531 241.121094 85.097656 C 241.121094 79.300781 245.824219 74.59375 251.621094 74.59375 Z M 251.621094 74.59375 " fill-opacity="1" fill-rule="nonzero"/></g><g clip-path="url(#d8b534a725)"><path fill="#000000" d="M 161.535156 61.398438 L 163.171875 59.761719 L 161.535156 58.125 L 162.011719 57.648438 L 163.648438 59.285156 L 165.285156 57.648438 L 165.761719 58.125 L 164.125 59.761719 L 165.761719 61.398438 L 165.285156 61.875 L 163.648438 60.238281 L 162.011719 61.875 Z M 188.746094 107.292969 C 183.085938 107.292969 179.09375 110.125 177.628906 111.316406 L 180.253906 114.457031 C 181.378906 113.535156 184.414062 111.386719 188.746094 111.386719 C 188.746094 111.386719 188.746094 111.386719 188.777344 111.386719 C 193.109375 111.386719 196.144531 113.535156 197.269531 114.457031 L 199.894531 111.316406 C 198.054688 109.816406 194.234375 107.292969 188.746094 107.292969 C 188.777344 107.292969 188.746094 107.292969 188.746094 107.292969 Z M 177.628906 91.710938 L 158.636719 91.710938 L 158.636719 95.804688 L 177.628906 95.804688 Z M 201.496094 95.804688 L 220.492188 95.804688 L 220.492188 91.710938 L 201.496094 91.710938 Z M 262.5 85.097656 C 262.5 90.824219 258.066406 95.496094 252.441406 95.90625 L 252.441406 106.101562 C 252.441406 106.273438 252.339844 106.40625 252.167969 106.441406 L 244.019531 108.488281 L 239.347656 115.375 L 240.4375 122.46875 C 240.4375 122.570312 240.4375 122.671875 240.371094 122.742188 C 240.300781 122.808594 240.234375 122.878906 240.132812 122.878906 L 230.925781 123.527344 L 228.777344 129.21875 C 228.742188 129.324219 228.640625 129.390625 228.539062 129.425781 L 222.128906 131.230469 L 216.058594 136.414062 L 214.964844 139.585938 L 214.011719 142.347656 C 213.976562 142.484375 213.839844 142.585938 213.703125 142.585938 L 125.390625 142.585938 C 125.183594 142.585938 125.046875 142.449219 125.046875 142.246094 L 125.046875 132.253906 L 115.839844 132.253906 C 114.75 132.253906 113.761719 131.675781 113.214844 130.753906 C 112.671875 129.800781 112.671875 128.675781 113.214844 127.71875 L 125.046875 107.226562 L 125.046875 55.90625 C 125.046875 55.703125 125.183594 55.566406 125.390625 55.566406 L 168.148438 55.566406 C 168.355469 55.566406 168.488281 55.703125 168.488281 55.90625 L 168.488281 63.273438 L 252.101562 63.273438 C 252.304688 63.273438 252.441406 63.410156 252.441406 63.613281 L 252.441406 74.289062 C 258.03125 74.695312 262.5 79.367188 262.5 85.097656 Z M 125.730469 106.03125 C 125.765625 106 125.796875 105.964844 125.796875 105.929688 C 125.832031 105.898438 125.867188 105.828125 125.902344 105.792969 C 125.933594 105.726562 126.003906 105.691406 126.039062 105.625 C 126.070312 105.589844 126.105469 105.523438 126.171875 105.488281 C 126.207031 105.453125 126.277344 105.386719 126.34375 105.351562 C 126.378906 105.316406 126.445312 105.28125 126.480469 105.25 C 126.546875 105.214844 126.582031 105.179688 126.652344 105.113281 C 126.683594 105.078125 126.753906 105.042969 126.789062 105.011719 C 126.855469 104.976562 126.921875 104.941406 126.992188 104.90625 C 127.027344 104.875 127.09375 104.875 127.128906 104.839844 C 127.195312 104.804688 127.265625 104.769531 127.367188 104.769531 C 127.402344 104.769531 127.46875 104.738281 127.503906 104.738281 C 127.570312 104.703125 127.675781 104.703125 127.777344 104.703125 C 127.808594 104.703125 127.84375 104.667969 127.914062 104.667969 C 127.945312 104.667969 127.945312 104.667969 127.980469 104.667969 L 127.980469 66.546875 C 127.980469 66.34375 128.117188 66.207031 128.320312 66.207031 L 249.542969 66.207031 C 249.746094 66.207031 249.882812 66.34375 249.882812 66.546875 L 249.882812 74.355469 C 250.464844 74.253906 251.042969 74.21875 251.621094 74.21875 C 251.65625 74.21875 251.691406 74.21875 251.726562 74.21875 L 251.726562 63.957031 L 168.148438 63.957031 C 167.945312 63.957031 167.808594 63.820312 167.808594 63.613281 L 167.808594 56.25 L 125.730469 56.25 Z M 115.839844 131.574219 L 140.699219 131.574219 C 141.347656 131.574219 141.925781 131.335938 142.335938 130.890625 C 142.472656 130.753906 142.609375 130.585938 142.710938 130.414062 C 143.121094 129.699219 143.121094 128.8125 142.710938 128.0625 L 130.265625 106.511719 C 129.855469 105.792969 129.070312 105.351562 128.253906 105.351562 C 127.402344 105.351562 126.652344 105.792969 126.242188 106.511719 L 113.796875 128.0625 C 113.386719 128.777344 113.386719 129.664062 113.796875 130.414062 C 114.203125 131.164062 114.988281 131.574219 115.839844 131.574219 Z M 214.148438 139.824219 L 128.253906 139.824219 C 128.050781 139.824219 127.914062 139.6875 127.914062 139.484375 L 127.914062 132.253906 L 125.730469 132.253906 L 125.730469 141.90625 L 213.433594 141.90625 Z M 243.746094 107.839844 L 249.234375 106.476562 L 249.234375 95.699219 C 249.167969 95.699219 249.097656 95.667969 249.03125 95.667969 C 248.960938 95.667969 248.929688 95.632812 248.859375 95.632812 C 248.722656 95.597656 248.585938 95.566406 248.453125 95.53125 C 248.417969 95.53125 248.382812 95.53125 248.382812 95.496094 C 247.699219 95.292969 247.054688 95.019531 246.472656 94.679688 C 246.335938 94.609375 246.167969 94.507812 246.03125 94.4375 C 245.894531 94.335938 245.757812 94.269531 245.585938 94.167969 C 245.144531 93.894531 244.769531 93.554688 244.359375 93.210938 C 244.324219 93.179688 244.292969 93.179688 244.292969 93.144531 C 244.1875 93.074219 244.121094 92.972656 244.019531 92.90625 C 243.949219 92.871094 243.917969 92.800781 243.882812 92.734375 C 243.8125 92.667969 243.78125 92.632812 243.710938 92.5625 C 243.644531 92.496094 243.574219 92.425781 243.542969 92.359375 C 243.507812 92.324219 243.472656 92.257812 243.4375 92.222656 C 243.371094 92.15625 243.300781 92.050781 243.234375 91.984375 C 243.199219 91.949219 243.199219 91.949219 243.167969 91.917969 C 242.175781 90.65625 241.460938 89.1875 241.085938 87.550781 C 241.085938 87.515625 241.085938 87.515625 241.085938 87.484375 C 241.050781 87.382812 241.050781 87.246094 241.019531 87.140625 C 241.019531 87.074219 240.984375 87.039062 240.984375 86.972656 C 240.984375 86.871094 240.949219 86.765625 240.949219 86.664062 C 240.949219 86.597656 240.914062 86.496094 240.914062 86.425781 C 240.914062 86.359375 240.882812 86.253906 240.882812 86.1875 C 240.882812 86.085938 240.882812 85.984375 240.847656 85.878906 C 240.847656 85.8125 240.847656 85.746094 240.847656 85.675781 C 240.847656 85.503906 240.847656 85.335938 240.847656 85.164062 C 240.847656 84.992188 240.847656 84.824219 240.847656 84.652344 C 240.847656 84.585938 240.847656 84.515625 240.847656 84.449219 C 240.847656 84.347656 240.847656 84.242188 240.882812 84.140625 C 240.882812 84.074219 240.914062 83.972656 240.914062 83.902344 C 240.914062 83.835938 240.949219 83.734375 240.949219 83.664062 C 240.949219 83.5625 240.984375 83.460938 240.984375 83.355469 C 240.984375 83.289062 241.019531 83.253906 241.019531 83.1875 C 241.050781 83.085938 241.050781 82.949219 241.085938 82.847656 C 241.085938 82.8125 241.085938 82.8125 241.085938 82.777344 C 241.460938 81.175781 242.175781 79.675781 243.167969 78.414062 C 243.199219 78.378906 243.199219 78.34375 243.234375 78.34375 C 243.300781 78.277344 243.371094 78.175781 243.4375 78.105469 C 243.472656 78.070312 243.507812 78.003906 243.574219 77.96875 C 243.644531 77.902344 243.675781 77.832031 243.746094 77.765625 C 243.8125 77.695312 243.847656 77.628906 243.917969 77.59375 C 243.949219 77.5625 244.019531 77.492188 244.050781 77.457031 C 244.15625 77.355469 244.222656 77.289062 244.324219 77.183594 C 244.359375 77.152344 244.359375 77.152344 244.394531 77.117188 C 244.769531 76.777344 245.179688 76.433594 245.621094 76.164062 C 245.757812 76.058594 245.894531 75.957031 246.0625 75.890625 C 246.199219 75.789062 246.371094 75.71875 246.507812 75.617188 C 247.121094 75.277344 247.769531 75.003906 248.453125 74.796875 C 248.484375 74.796875 248.519531 74.796875 248.519531 74.765625 C 248.65625 74.730469 248.792969 74.695312 248.929688 74.664062 C 248.996094 74.664062 249.03125 74.628906 249.097656 74.628906 C 249.167969 74.628906 249.234375 74.59375 249.304688 74.59375 L 249.304688 66.886719 L 128.59375 66.886719 L 128.59375 104.667969 C 128.59375 104.667969 128.628906 104.667969 128.628906 104.667969 C 128.664062 104.667969 128.695312 104.667969 128.765625 104.703125 C 128.832031 104.703125 128.933594 104.738281 129.003906 104.738281 C 129.039062 104.738281 129.105469 104.769531 129.140625 104.769531 C 129.207031 104.804688 129.277344 104.804688 129.378906 104.839844 C 129.414062 104.875 129.480469 104.875 129.515625 104.90625 C 129.582031 104.941406 129.652344 104.976562 129.71875 105.011719 C 129.753906 105.042969 129.789062 105.042969 129.855469 105.078125 C 129.925781 105.113281 129.992188 105.144531 130.0625 105.214844 C 130.09375 105.25 130.128906 105.28125 130.164062 105.28125 C 130.230469 105.316406 130.300781 105.386719 130.332031 105.453125 C 130.367188 105.488281 130.402344 105.523438 130.4375 105.554688 C 130.503906 105.625 130.574219 105.691406 130.605469 105.761719 C 130.640625 105.792969 130.640625 105.828125 130.675781 105.828125 C 130.742188 105.929688 130.8125 106.03125 130.878906 106.136719 L 143.324219 127.6875 C 143.597656 128.164062 143.734375 128.675781 143.734375 129.1875 C 143.734375 129.699219 143.597656 130.207031 143.324219 130.6875 C 142.78125 131.640625 141.789062 132.1875 140.699219 132.1875 L 128.59375 132.1875 L 128.59375 139.074219 L 214.351562 139.074219 L 215.410156 136.039062 C 215.445312 135.972656 215.476562 135.9375 215.511719 135.902344 L 221.71875 130.585938 C 221.753906 130.550781 221.785156 130.515625 221.855469 130.515625 L 228.195312 128.742188 L 230.378906 123.015625 C 230.414062 122.878906 230.550781 122.808594 230.6875 122.808594 L 239.722656 122.160156 L 238.664062 115.308594 C 238.664062 115.238281 238.664062 115.136719 238.734375 115.070312 L 243.542969 107.976562 C 243.574219 107.910156 243.644531 107.875 243.746094 107.839844 Z M 251.621094 95.972656 C 251.042969 95.972656 250.464844 95.941406 249.882812 95.835938 L 249.882812 106.339844 L 251.726562 105.863281 L 251.726562 95.972656 C 251.726562 95.972656 251.65625 95.972656 251.621094 95.972656 Z M 261.816406 85.097656 C 261.816406 79.46875 257.25 74.933594 251.65625 74.933594 C 250.976562 74.933594 250.292969 75.003906 249.609375 75.140625 C 249.578125 75.140625 249.542969 75.140625 249.507812 75.171875 C 249.371094 75.207031 249.234375 75.242188 249.132812 75.277344 C 249.097656 75.277344 249.066406 75.308594 249.03125 75.308594 C 248.894531 75.34375 248.792969 75.378906 248.65625 75.414062 C 248.621094 75.414062 248.585938 75.445312 248.585938 75.445312 C 248.453125 75.480469 248.316406 75.546875 248.179688 75.582031 C 248.144531 75.582031 248.144531 75.582031 248.109375 75.617188 C 247.972656 75.683594 247.835938 75.71875 247.699219 75.789062 C 247.699219 75.789062 247.699219 75.789062 247.667969 75.789062 C 246.78125 76.164062 245.929688 76.675781 245.179688 77.289062 C 245.179688 77.289062 245.144531 77.320312 245.144531 77.320312 C 245.042969 77.425781 244.9375 77.492188 244.835938 77.59375 C 244.804688 77.628906 244.769531 77.628906 244.769531 77.664062 C 244.699219 77.730469 244.597656 77.832031 244.53125 77.902344 C 244.496094 77.9375 244.460938 77.96875 244.425781 78.003906 C 244.359375 78.070312 244.292969 78.140625 244.222656 78.207031 C 244.1875 78.242188 244.121094 78.3125 244.085938 78.34375 C 244.050781 78.414062 243.984375 78.445312 243.949219 78.515625 C 243.609375 78.890625 243.300781 79.332031 243.03125 79.742188 C 242.960938 79.878906 242.894531 79.980469 242.824219 80.117188 C 242.347656 80.96875 241.972656 81.890625 241.769531 82.847656 C 241.769531 82.878906 241.734375 82.914062 241.734375 82.949219 C 241.699219 83.050781 241.699219 83.152344 241.664062 83.253906 C 241.664062 83.324219 241.632812 83.390625 241.632812 83.460938 C 241.632812 83.527344 241.597656 83.628906 241.597656 83.699219 C 241.597656 83.765625 241.5625 83.867188 241.5625 83.9375 C 241.5625 84.003906 241.5625 84.074219 241.527344 84.140625 C 241.527344 84.242188 241.496094 84.347656 241.496094 84.484375 C 241.496094 84.515625 241.496094 84.585938 241.496094 84.617188 C 241.496094 84.789062 241.496094 84.960938 241.496094 85.097656 C 241.496094 85.234375 241.496094 85.4375 241.496094 85.574219 C 241.496094 85.609375 241.496094 85.675781 241.496094 85.710938 C 241.496094 85.8125 241.496094 85.914062 241.527344 86.050781 C 241.527344 86.121094 241.527344 86.1875 241.5625 86.253906 C 241.5625 86.324219 241.597656 86.425781 241.597656 86.496094 C 241.597656 86.597656 241.632812 86.664062 241.632812 86.734375 C 241.632812 86.800781 241.664062 86.871094 241.664062 86.9375 C 241.699219 87.039062 241.699219 87.140625 241.734375 87.246094 C 241.734375 87.277344 241.769531 87.3125 241.769531 87.347656 C 242.007812 88.300781 242.347656 89.222656 242.824219 90.074219 C 243.167969 90.65625 243.542969 91.199219 243.949219 91.675781 C 243.984375 91.746094 244.050781 91.78125 244.085938 91.847656 C 244.121094 91.882812 244.1875 91.949219 244.222656 91.984375 C 244.292969 92.050781 244.359375 92.121094 244.425781 92.1875 C 244.460938 92.222656 244.496094 92.257812 244.53125 92.292969 C 244.597656 92.359375 244.699219 92.460938 244.769531 92.53125 C 244.804688 92.5625 244.835938 92.597656 244.835938 92.597656 C 244.9375 92.699219 245.042969 92.769531 245.144531 92.871094 C 245.144531 92.871094 245.179688 92.90625 245.179688 92.90625 C 245.929688 93.519531 246.746094 94.03125 247.667969 94.40625 C 247.667969 94.40625 247.667969 94.40625 247.699219 94.40625 C 247.835938 94.472656 247.972656 94.507812 248.109375 94.574219 C 248.144531 94.574219 248.144531 94.574219 248.179688 94.609375 C 248.316406 94.644531 248.453125 94.710938 248.554688 94.746094 C 248.585938 94.746094 248.621094 94.78125 248.621094 94.78125 C 248.757812 94.816406 248.859375 94.847656 248.996094 94.882812 C 249.03125 94.882812 249.066406 94.917969 249.097656 94.917969 C 249.234375 94.949219 249.371094 94.984375 249.472656 95.019531 C 249.507812 95.019531 249.542969 95.019531 249.578125 95.054688 C 250.222656 95.191406 250.90625 95.257812 251.621094 95.257812 C 251.757812 95.257812 251.929688 95.257812 252.066406 95.257812 C 257.488281 95.019531 261.816406 90.550781 261.816406 85.097656 Z M 256.90625 79.84375 C 256.53125 79.46875 256.054688 79.300781 255.542969 79.300781 C 255.03125 79.300781 254.554688 79.503906 254.179688 79.84375 L 251.621094 82.402344 L 249.066406 79.84375 C 248.691406 79.46875 248.210938 79.300781 247.699219 79.300781 C 247.191406 79.300781 246.710938 79.503906 246.335938 79.84375 C 245.960938 80.21875 245.792969 80.699219 245.792969 81.210938 C 245.792969 81.71875 245.996094 82.199219 246.335938 82.574219 L 248.894531 85.128906 L 246.335938 87.6875 C 245.960938 88.0625 245.792969 88.539062 245.792969 89.050781 C 245.792969 89.5625 245.996094 90.039062 246.335938 90.414062 C 246.710938 90.789062 247.191406 90.960938 247.699219 90.960938 C 248.210938 90.960938 248.691406 90.757812 249.066406 90.414062 L 251.621094 87.859375 L 254.179688 90.414062 C 254.554688 90.789062 255.03125 90.960938 255.542969 90.960938 C 256.054688 90.960938 256.53125 90.757812 256.90625 90.414062 C 257.65625 89.664062 257.65625 88.472656 256.90625 87.722656 L 254.351562 85.164062 L 256.90625 82.605469 C 257.65625 81.789062 257.65625 80.5625 256.90625 79.84375 Z M 128.253906 122.230469 C 129.175781 122.230469 129.925781 121.480469 129.925781 120.558594 L 129.925781 112.785156 C 129.925781 111.863281 129.175781 111.113281 128.253906 111.113281 C 127.332031 111.113281 126.582031 111.863281 126.582031 112.785156 L 126.582031 120.558594 C 126.582031 121.480469 127.332031 122.230469 128.253906 122.230469 Z M 128.253906 127.855469 C 129.175781 127.855469 129.925781 127.105469 129.925781 126.183594 C 129.925781 125.265625 129.175781 124.515625 128.253906 124.515625 C 127.332031 124.515625 126.582031 125.265625 126.582031 126.183594 C 126.582031 127.105469 127.332031 127.855469 128.253906 127.855469 Z M 133.199219 62.25 C 133.367188 62.113281 133.847656 61.773438 134.492188 61.773438 C 135.140625 61.773438 135.617188 62.113281 135.789062 62.25 L 136.234375 61.738281 C 135.992188 61.535156 135.378906 61.125 134.492188 61.125 C 133.640625 61.125 133.027344 61.535156 132.753906 61.738281 Z M 132.789062 58.671875 L 129.855469 58.671875 L 129.855469 59.351562 L 132.789062 59.351562 Z M 139.402344 58.671875 L 136.472656 58.671875 L 136.472656 59.351562 L 139.402344 59.351562 Z M 256.054688 114.695312 C 256.125 114.761719 256.15625 114.863281 256.15625 114.96875 L 252.542969 145.996094 C 252.542969 146.097656 252.476562 146.167969 252.40625 146.234375 C 252.339844 146.269531 252.269531 146.304688 252.203125 146.304688 C 252.203125 146.304688 252.167969 146.304688 252.167969 146.304688 L 219.09375 142.449219 C 218.988281 142.449219 218.886719 142.382812 218.820312 142.28125 C 218.75 142.175781 218.75 142.074219 218.820312 141.972656 L 219.84375 139.996094 C 219.875 139.925781 219.910156 139.894531 219.980469 139.859375 L 221 139.277344 L 228.128906 135.324219 C 228.164062 135.289062 228.195312 135.289062 228.230469 135.289062 L 233.992188 134.265625 L 236.550781 129.050781 C 236.617188 128.914062 236.789062 128.8125 236.960938 128.878906 L 244.9375 131.128906 L 244.734375 122.570312 C 244.734375 122.503906 244.734375 122.46875 244.769531 122.398438 L 248.246094 115.957031 C 248.28125 115.851562 248.382812 115.785156 248.484375 115.785156 L 253.191406 115.035156 L 255.78125 114.625 C 255.886719 114.589844 255.988281 114.625 256.054688 114.695312 Z M 228.402344 135.972656 L 222.261719 139.382812 L 249.714844 142.585938 L 252.816406 115.785156 L 248.722656 116.433594 L 245.382812 122.640625 L 245.585938 131.574219 C 245.585938 131.675781 245.554688 131.777344 245.449219 131.84375 C 245.347656 131.914062 245.246094 131.949219 245.144531 131.914062 L 236.996094 129.628906 L 234.503906 134.742188 C 234.472656 134.847656 234.367188 134.914062 234.265625 134.914062 Z M 255.441406 115.34375 L 253.53125 115.648438 L 250.359375 142.996094 C 250.328125 143.167969 250.191406 143.304688 250.019531 143.304688 C 250.019531 143.304688 249.984375 143.304688 249.984375 143.304688 L 221.242188 139.960938 L 220.386719 140.4375 L 219.636719 141.871094 L 251.894531 145.621094 Z M 255.441406 115.34375 " fill-opacity="1" fill-rule="nonzero"/></g></svg>